<?xml version="1.0" standalone="no"?><!DOCTYPE svg PUBLIC "-//W3C//DTD SVG 1.1//EN" "http://www.w3.org/Graphics/SVG/1.1/DTD/svg11.dtd"><svg t="1578204821921" class="icon" viewBox="0 0 1024 1024" version="1.1" xmlns="http://www.w3.org/2000/svg" p-id="813" xmlns:xlink="http://www.w3.org/1999/xlink" width="64" height="64"><defs><style type="text/css"></style></defs><path d="M1008.64 305.7664H15.36V241.96608A99.07712 99.07712 0 0 1 114.688 143.36h794.624A99.07712 99.07712 0 0 1 1008.64 241.96608V305.7664zM73.76896 247.76704H950.2208v-5.80096a40.80128 40.80128 0 0 0-40.89856-40.6016H114.688a40.80128 40.80128 0 0 0-40.89856 40.6016v5.80096zM909.312 885.76H114.688A99.07712 99.07712 0 0 1 15.36 787.16416v-434.9952h993.28v434.9952A99.07712 99.07712 0 0 1 909.312 885.76zM73.76896 410.16832v376.99584a40.80128 40.80128 0 0 0 40.90368 40.6016H909.312a40.80128 40.80128 0 0 0 40.89856-40.6016V410.16832H73.76896z" fill="#074D9C" p-id="814"></path><path d="M541.53728 526.10048H122.74688V466.944h418.7904v59.1616zM401.92 644.42368H122.74688v-59.1616H401.92v59.1616z" fill="#F8B62D" p-id="815"></path></svg>