<?xml version="1.0" standalone="no"?><!DOCTYPE svg PUBLIC "-//W3C//DTD SVG 1.1//EN" "http://www.w3.org/Graphics/SVG/1.1/DTD/svg11.dtd"><svg t="1578204836502" class="icon" viewBox="0 0 1024 1024" version="1.1" xmlns="http://www.w3.org/2000/svg" p-id="1069" xmlns:xlink="http://www.w3.org/1999/xlink" width="64" height="64"><defs><style type="text/css"></style></defs><path d="M973.17376 640.34304l-262.05184 199.49056-1.11616 0.89088a41.16992 41.16992 0 0 1-26.42944 9.66144H299.91936l-115.2 72.1152L101.888 793.91232l149.4528-97.65376H491.008l0.47104 53.61152 58.84416-0.512-0.9984-112.37888h-315.392L20.48 776.44288 166.75328 1003.52l149.96992-93.85472h366.85312a99.84 99.84 0 0 0 63.52896-22.93248L1008.64 687.616z m-464.78336-38.912c158.99136 0 288.3328-130.304 288.3328-290.46784S667.38176 20.48 508.3904 20.48 220.0576 150.77888 220.0576 310.94272s129.33632 290.46784 288.3328 290.46784z m0-521.65632a231.1936 231.1936 0 1 1-229.49376 231.168 230.6048 230.6048 0 0 1 229.49376-231.18848z" fill="#074D9C" p-id="1070"></path><path d="M601.89184 282.74176L542.62272 342.3744v-165.376H486.48192v165.376L427.21792 282.74176l-39.70048 39.936L514.56 450.5088l39.69536-39.936 87.33184-87.8848z" fill="#F8B62D" p-id="1071"></path></svg>