<?xml version="1.0" standalone="no"?><!DOCTYPE svg PUBLIC "-//W3C//DTD SVG 1.1//EN" "http://www.w3.org/Graphics/SVG/1.1/DTD/svg11.dtd"><svg t="1578204772272" class="icon" viewBox="0 0 1024 1024" version="1.1" xmlns="http://www.w3.org/2000/svg" p-id="1905" xmlns:xlink="http://www.w3.org/1999/xlink" width="64" height="64"><defs><style type="text/css"></style></defs><path d="M549.7 832.82a114.231 61.195 7.267 1 0 226.627 28.9 114.231 61.195 7.267 1 0-226.627-28.9zM301.216 859.453c5.44 33.997 61.196 54.396 126.47 47.596 65.275-6.8 112.872-39.437 108.792-73.434-5.44-33.997-61.195-54.396-126.47-47.596-65.275 6.8-112.871 39.437-108.792 73.434z" fill="#E38010" p-id="1906"></path><path d="M316.175 424.287a227.102 225.742 0 1 0 454.205 0 227.102 225.742 0 1 0-454.205 0z" fill="#040000" p-id="1907"></path><path d="M299.857 852.653c5.44 33.998 61.195 54.396 126.47 47.597 65.275-6.8 112.87-39.437 108.791-73.435-5.44-33.997-61.195-54.395-126.47-47.596-65.275 6.8-114.231 39.437-108.791 73.434zM552.428 824.679a114.231 61.195 7.267 1 0 226.627 28.899 114.231 61.195 7.267 1 0-226.627-28.9z" fill="#F4A418" p-id="1908"></path><path d="M318.895 674.507a220.303 183.586 0 1 0 440.606 0 220.303 183.586 0 1 0-440.606 0z" fill="#040000" p-id="1909"></path><path d="M355.612 637.79c-32.637 63.915-82.953 104.712-97.912 96.553-20.399-10.88-24.478-76.154 8.16-140.07 32.637-63.914 84.313-106.071 108.79-92.472 25.839 12.239 13.6 72.074-19.038 135.99z m371.251 8.16c29.918 58.475 72.075 103.351 89.753 99.272 14.959-2.72 24.478-72.075-1.36-137.35-27.198-66.634-77.514-114.23-101.992-101.992-24.478 13.6-19.038 76.155 13.6 140.07z" fill="#040000" p-id="1910"></path><path d="M378.73 558.916c-13.599 27.198-21.758 59.836-21.758 92.473 0 111.511 82.954 201.264 186.306 201.264S730.943 762.9 730.943 652.75c0-32.637-6.8-63.915-20.399-91.113-95.192 47.596-269.258 12.24-331.814-2.72zM438.566 371.251a54.396 44.876 90 1 0 89.753 0 54.396 44.876 90 1 0-89.753 0zM566.396 372.61a54.396 44.876 90 1 0 89.753 0 54.396 44.876 90 1 0-89.753 0z" fill="#FFFFFF" p-id="1911"></path><path d="M551.437 441.965c-62.555 0-115.591 14.96-146.869 36.718 8.16 17.678 29.918 31.277 53.036 44.876 27.198 14.959 70.715 25.838 93.833 25.838 20.398 0 72.074-13.599 99.272-31.277 19.039-12.24 39.437-23.119 47.596-39.437-31.277-23.119-85.673-36.718-146.868-36.718z" fill="#F4A418" p-id="1912"></path><path d="M465.764 372.61a33.997 27.198 90 1 0 54.395 0 33.997 27.198 90 1 0-54.395 0z" fill="#040000" p-id="1913"></path><path d="M486.162 364.452a13.599 12.239 90 1 0 24.478 0 13.599 12.239 90 1 0-24.478 0z" fill="#FFFFFF" p-id="1914"></path><path d="M589.514 380.77c-2.72 0-5.44-1.36-5.44-4.08v-5.439c0-14.959 10.88-25.838 23.119-25.838s23.118 12.24 23.118 25.838v4.08c0 2.72-2.72 5.44-6.8 4.08-2.72 0-5.44-2.72-5.44-6.8v-2.72c0-8.16-5.439-14.959-12.238-14.959s-12.24 6.8-12.24 14.96v2.719c1.36 5.44 0 8.16-4.08 8.16z" fill="#040000" p-id="1915"></path><path d="M426.327 469.163s33.997 29.918 65.275 38.077c36.717 10.88 89.753 5.44 110.151-1.36 36.717-12.239 76.154-39.436 76.154-39.436s-33.997 25.838-69.355 48.956c-17.678 12.239-38.077 28.558-78.873 19.038-10.88-2.72-28.558-14.959-35.358-17.678-29.917-17.679-61.195-40.797-67.994-47.597z" fill="#893322" p-id="1916"></path><path d="M464.404 625.551v99.272s-40.797 19.039-77.514-16.318c-13.6-13.6 8.16-108.792 8.16-108.792l69.354 25.838z" fill="#DB3428" p-id="1917"></path><path d="M388.25 605.153l74.794 59.835s1.36-38.077 0-48.956c-1.36-10.88-74.794-17.679-74.794-17.679" fill="#B72C22" p-id="1918"></path><path d="M551.437 641.87c-95.193 0-183.586-33.997-254.3-95.193-1.36-1.36-1.36-6.8-1.36-6.8s2.72-10.878 6.8-35.356c2.72-17.679 10.879-39.437 13.598-39.437 2.72 1.36 5.44 4.08 8.16 6.8 5.44 5.439 9.519 9.518 12.239 10.878 58.475 54.396 134.63 84.314 214.863 84.314s156.388-29.918 214.863-84.314c0 0 13.6 16.319 19.039 32.638 5.44 17.678 12.239 36.717 6.8 42.156-69.355 55.756-153.669 84.314-240.702 84.314z" fill="#DB3428" p-id="1919"></path></svg>