<?xml version="1.0" standalone="no"?><!DOCTYPE svg PUBLIC "-//W3C//DTD SVG 1.1//EN" "http://www.w3.org/Graphics/SVG/1.1/DTD/svg11.dtd"><svg t="1578204778077" class="icon" viewBox="0 0 1024 1024" version="1.1" xmlns="http://www.w3.org/2000/svg" p-id="2037" xmlns:xlink="http://www.w3.org/1999/xlink" width="64" height="64"><defs><style type="text/css"></style></defs><path d="M655.6 384.8c10 0 18 0 28.4 2-24-115.2-146.8-199.2-286-199.2-154.8 0-284.4 106.8-284.4 242 0 78.8 42.4 141.2 112.8 191.2l-28.4 84 98.8-50.4c36.4 6.4 64.4 14.4 98.8 14.4 8 0 18 0 26.4-2-6.4-18-8-38-8-60.4-0.4-120.8 106.4-221.6 241.6-221.6z m-153.2-78.8c22 0 36.4 14.4 36.4 36.4s-14.4 36.4-36.4 36.4S460 364 460 342.4c0-22.4 20.4-36.4 42.4-36.4zM303.2 378.4c-22 0-42.4-14.4-42.4-36.4s22-36.4 42.4-36.4c22 0 36.4 14.4 36.4 36.4s-14.4 36.4-36.4 36.4z m0 0" fill="#09BB07" p-id="2038"></path><path d="M913.6 606.4c0-112.8-112.8-205.6-242-205.6-135.2 0-242 92.8-242 205.6s106.8 205.6 242 205.6c28.4 0 56.4-8 84.8-14.4l78.8 42.4-22-70.8c57.6-43.6 100.4-100.4 100.4-162.8z m-318.4-36.4c-14.4 0-28.4-14.4-28.4-28.4 0-14.4 14.4-28.4 28.4-28.4 22 0 36.4 14.4 36.4 28.4-2.4 14.8-16.4 28.4-36.4 28.4z m155.2 0c-14.4 0-28.4-14.4-28.4-28.4 0-14.4 14.4-28.4 28.4-28.4 22 0 36.4 14.4 36.4 28.4 0 14.8-14.4 28.4-36.4 28.4z m0 0" fill="#09BB07" p-id="2039"></path></svg>