<?xml version="1.0" standalone="no"?><!DOCTYPE svg PUBLIC "-//W3C//DTD SVG 1.1//EN" "http://www.w3.org/Graphics/SVG/1.1/DTD/svg11.dtd"><svg t="1578204828505" class="icon" viewBox="0 0 1024 1024" version="1.1" xmlns="http://www.w3.org/2000/svg" p-id="945" xmlns:xlink="http://www.w3.org/1999/xlink" width="64" height="64"><defs><style type="text/css"></style></defs><path d="M396.88704 644.9664L294.912 479.39584 276.23424 504.32H61.07136V443.904h184.92416l53.87264-71.79264 91.55072 148.66432 119.10144-238.01856 80.60928 112.78336h129.57184v60.416h-160.6912L519.68 399.55456z" fill="#F8B62D" p-id="946"></path><path d="M686.75072 106.496a261.46304 261.46304 0 0 1 184.87808 446.38208L512 912.384l-359.6288-359.53152a261.54496 261.54496 0 0 1 326.82496-404.61824L512 169.472l32.80896-21.22752a260.63872 260.63872 0 0 1 141.94176-41.74848m0-60.3648A321.48992 321.48992 0 0 0 512 97.55648a322.14016 322.14016 0 0 0-402.32448 42.78784 321.81248 321.81248 0 0 0 0 455.168l377.088 377.00096 0.3072 0.30208a35.56352 35.56352 0 0 0 49.85856 0l0.3072-0.30208 377.088-377.00096a321.80736 321.80736 0 0 0 0-455.168 320.85504 320.85504 0 0 0-227.57376-94.23872z" fill="#074D9C" p-id="947"></path></svg>