<?xml version="1.0" standalone="no"?><!DOCTYPE svg PUBLIC "-//W3C//DTD SVG 1.1//EN" "http://www.w3.org/Graphics/SVG/1.1/DTD/svg11.dtd"><svg t="1578204758355" class="icon" viewBox="0 0 1024 1024" version="1.1" xmlns="http://www.w3.org/2000/svg" p-id="1752" width="64" height="64" xmlns:xlink="http://www.w3.org/1999/xlink"><defs><style type="text/css"></style></defs><path d="M128.7 628.1c0 106 135.4 188.4 306.1 188.4 170.7 0 306.1-82.4 306.1-188.4S605.5 439.7 434.8 439.7c-170.7 0.1-306.1 82.5-306.1 188.4" fill="#FFFFFF" p-id="1753"></path><path d="M735.1 481c-11.8-5.9-23.5-5.9-17.7-23.5 11.8-35.3 17.7-64.8 0-88.3-29.4-41.2-111.8-41.2-200.2 0 0 0-29.4 11.8-23.5-11.8 23.5-47.1 17.7-88.3 0-106-47.1-47.1-182.5 0-294.3 117.7C116.9 451.6 64 545.7 64 622.3c0 147.2 188.4 241.4 376.8 241.4C688 863.7 847 722.4 847 610.6c-0.1-76.6-59-117.8-111.9-129.6zM440.7 804.8c-147.2 17.7-276.7-53-288.4-153.1-11.8-94.2 100.1-188.4 253.1-200.1 147.2-17.7 276.7 53 288.4 153.1 5.9 94.1-105.9 182.4-253.1 200.1z m0 0" fill="#D52B2A" p-id="1754"></path><path d="M899.9 204.3C841 139.6 752.7 116 670.3 133.7c-17.7 5.9-29.4 23.5-29.4 41.2 11.8 17.7 29.4 29.4 47.1 23.5 58.9-11.8 117.7 5.9 158.9 53s53 111.8 35.3 164.8c-5.9 17.7 5.9 35.3 23.5 41.2 17.7 5.9 35.3-5.9 41.2-23.5 29.5-70.7 11.8-159-47-229.6" fill="#E89214" p-id="1755"></path><path d="M811.6 286.7c-29.4-29.4-70.6-41.2-111.8-35.3-17.7 5.9-23.5 17.7-23.5 35.3 5.9 17.7 17.7 23.5 35.3 23.5 17.7-5.9 41.2 0 53 17.7 11.8 17.7 17.7 35.3 11.8 53-5.9 17.7 5.9 29.4 17.7 35.3 17.7 5.9 29.4-5.9 35.3-17.7 17.5-35.3 11.6-76.5-17.8-111.8" fill="#E89214" p-id="1756"></path><path d="M452.5 522.2c-70.6-17.7-147.2 17.7-182.5 82.4-29.4 64.7 0 135.4 70.6 158.9 76.5 23.5 164.8-11.8 194.3-82.4 29.4-70.6-5.9-135.4-82.4-158.9z m-53 164.8c-11.8 23.5-47.1 35.3-70.6 23.5-23.5-11.8-29.4-35.3-17.7-58.9 11.8-23.5 41.2-29.4 64.8-23.5 29.4 11.8 35.3 35.4 23.5 58.9z m47.1-58.9c-5.9 11.8-17.7 11.8-23.5 11.8-11.8-5.9-11.8-11.8-5.9-23.5 5.9-5.9 17.7-11.8 23.5-11.8 5.9 5.9 11.8 11.8 5.9 23.5z m0 0" fill="#040000" p-id="1757"></path></svg>